<svg id="Слой_1" data-name="Слой 1" xmlns="http://www.w3.org/2000/svg" viewBox="0 0 230 213"><defs><style>.cls-1{fill:#666;}.cls-2{fill:#fff;}.cls-3{fill:#deb2b2;}</style></defs><title>icon-about</title><path class="cls-1" d="M168,135.4h-7.3V98.9c0-11.1-24-18.3-36.5-18.3S87.7,87.7,87.7,98.9v36.5H80.4V98.9c0-17,28.1-25.6,43.8-25.6S168,81.9,168,98.9Z" transform="translate(-11 -18.5)"/><rect class="cls-1" x="131.4" y="84" width="7.3" height="32.9"/><rect class="cls-1" x="87.6" y="84" width="7.3" height="32.9"/><path class="cls-2" d="M124.2,65.7a18.37,18.37,0,0,0,18.3-18.6V40.9a18.3,18.3,0,1,0-36.6,0V47A18.46,18.46,0,0,0,124.2,65.7Z" transform="translate(-11 -18.5)"/><path class="cls-1" d="M124.2,69.3A22.11,22.11,0,0,1,102.3,47V40.8a21.9,21.9,0,1,1,43.8,0V47A22.11,22.11,0,0,1,124.2,69.3Zm0-43.4a14.77,14.77,0,0,0-14.6,15V47a14.61,14.61,0,1,0,29.2,0V40.8A14.81,14.81,0,0,0,124.2,25.9Z" transform="translate(-11 -18.5)"/><path class="cls-3" d="M101.2,169.5A18.32,18.32,0,0,0,84,157.3H62.1V131.7l7.3,7.3H95c16.7,0,14.6-18.3,14.6-18.3H84L58.5,95.2H43.9a14.55,14.55,0,0,0-14.6,14.6v54.8a21.89,21.89,0,0,0,21.9,21.9H80.4L95,230.3h20.3Z" transform="translate(-11 -18.5)"/><path class="cls-2" d="M54.8,83.9A18.37,18.37,0,0,1,36.5,65.3V59.1a18.3,18.3,0,1,1,36.6,0v6.2A18.37,18.37,0,0,1,54.8,83.9Z" transform="translate(-11 -18.5)"/><path class="cls-1" d="M54.8,87.6A22.11,22.11,0,0,1,32.9,65.3V59.1a21.9,21.9,0,1,1,43.8,0v6.2A22.11,22.11,0,0,1,54.8,87.6Zm0-43.5a14.77,14.77,0,0,0-14.6,15v6.2a14.61,14.61,0,1,0,29.2,0V59.1A14.77,14.77,0,0,0,54.8,44.1Z" transform="translate(-11 -18.5)"/><path class="cls-1" d="M91.5,231.5,77.7,190.2H51.2a25.65,25.65,0,0,1-25.6-25.6V109.8A18.31,18.31,0,0,1,43.9,91.5H60l25.6,25.6h27.3l.4,3.2c0,.4,1.1,10.3-4.7,16.9-3.2,3.6-7.8,5.5-13.5,5.5H67.9l-23-23,5.2-5.2,20.8,20.8h24q5.4,0,8.1-3a14,14,0,0,0,2.9-7.9H82.5L56.9,98.9h-13a11,11,0,0,0-11,11v54.8A18.31,18.31,0,0,0,51.2,183H83l15.4,46.3Z" transform="translate(-11 -18.5)"/><path class="cls-1" d="M111.7,231.1,97.8,170.5a14.56,14.56,0,0,0-13.7-9.6H58.5V131.7h7.3v21.9H84a22,22,0,0,1,20.7,14.7l.1.4,14,60.8Z" transform="translate(-11 -18.5)"/><path class="cls-2" d="M206.5,95.2H191.9l-25.6,25.6H140.7s-2.1,18.3,14.6,18.3h25.6l9-7.3v25.6H166.3a18.12,18.12,0,0,0-17.2,12.2l-14,60.8h20.3L170,186.6h29.2c12.1,0,23.6-9.8,23.6-21.9V109.9C222.7,101.8,214.6,95.2,206.5,95.2Z" transform="translate(-11 -18.5)"/><path class="cls-2" d="M197.2,83.9a18.37,18.37,0,0,0,18.3-18.6V59.1a18.3,18.3,0,1,0-36.6,0v6.2A18.37,18.37,0,0,0,197.2,83.9Z" transform="translate(-11 -18.5)"/><path class="cls-1" d="M197.2,87.6a22.11,22.11,0,0,1-21.9-22.3V59.1a21.9,21.9,0,1,1,43.8,0v6.2A22.11,22.11,0,0,1,197.2,87.6Zm0-43.5a14.77,14.77,0,0,0-14.6,15v6.2a14.61,14.61,0,1,0,29.2,0V59.1A14.83,14.83,0,0,0,197.2,44.1Z" transform="translate(-11 -18.5)"/><path class="cls-1" d="M158.8,231.5l-6.9-2.3,15.4-46.3h31.8c10.6,0,19.9-8.5,19.9-18.3V109.8c0-6.2-6.8-11-12.6-11H193.3l-25.6,25.6H144.3c.2,2.4.9,5.7,2.9,8,1.8,2,4.4,3,8,3h24L200,114.6l5.2,5.2-23,23H155.1c-5.7,0-10.3-1.8-13.5-5.5-5.8-6.5-4.8-16.4-4.7-16.9l.4-3.2h27.3l25.6-25.6h16.1c10.6,0,19.9,8.5,19.9,18.3v54.8c0,13.6-12.7,25.6-27.2,25.6H172.4Z" transform="translate(-11 -18.5)"/><path class="cls-1" d="M139.5,231.1l-7.1-1.5,13.3-61.2a22,22,0,0,1,20.7-14.7h19.9V131.8h7.3V161H166.4a14.56,14.56,0,0,0-13.7,9.6Z" transform="translate(-11 -18.5)"/><rect class="cls-1" x="51.1" y="116.9" width="127.8" height="7.3"/><path class="cls-1" d="M200.8,204.7H178.9v-7.3h21.9a32.93,32.93,0,0,0,32.9-32.9V95.2H241v69.4A40.18,40.18,0,0,1,200.8,204.7Z" transform="translate(-11 -18.5)"/><path class="cls-1" d="M73.1,204.7H51.2A40.27,40.27,0,0,1,11,164.5V95.2h7.3v69.4a32.93,32.93,0,0,0,32.9,32.9H73.1Z" transform="translate(-11 -18.5)"/></svg>