<svg id="Слой_1" data-name="Слой 1" xmlns="http://www.w3.org/2000/svg" viewBox="0 0 207.32 222.3"><defs><style>.cls-1{fill:#deb2b2;}.cls-2{fill:#666;}.cls-3{fill:#fff;}</style></defs><title>icon-about2</title><path class="cls-1" d="M191.2,41.9V83.2c15.3-5.8,31.8-3.1,46.2,7.4L234,84.4,222.9,63.8l14.5-14.4C223,38.8,206.5,36,191.2,41.9Z" transform="translate(-34 -13.9)"/><path class="cls-2" d="M237.4,94.3a3.89,3.89,0,0,1-2.3-.7c-13.4-9.8-28.6-12.2-42.6-6.9a3.92,3.92,0,0,1-3.5-.4,4,4,0,0,1-1.7-3.2V41.9a3.89,3.89,0,0,1,2.5-3.6c16.6-6.3,34.3-3.5,49.9,7.9a4,4,0,0,1,1.6,2.8,3.77,3.77,0,0,1-1.1,3L227.7,64.4l13.1,24.3a3.81,3.81,0,0,1-.8,4.7A4.32,4.32,0,0,1,237.4,94.3Zm-30-18a51.51,51.51,0,0,1,20.2,4.2l-8.1-15.1a3.8,3.8,0,0,1,.7-4.5l11.2-11.1c-11.7-7.2-24.4-9-36.4-5.2V77.9A48,48,0,0,1,207.4,76.3Z" transform="translate(-34 -13.9)"/><path class="cls-1" d="M141.3,29.1V70.4a53.79,53.79,0,0,1,49.8,1V30.1A53.49,53.49,0,0,0,141.3,29.1Z" transform="translate(-34 -13.9)"/><path class="cls-2" d="M191.2,75.2a4.49,4.49,0,0,1-1.9-.5,49.87,49.87,0,0,0-46.3-1,3.76,3.76,0,0,1-3.7-.2,3.86,3.86,0,0,1-1.8-3.3V29.1a3.67,3.67,0,0,1,2.1-3.4A57.61,57.61,0,0,1,193,26.8a4,4,0,0,1,2,3.4V71.5a3.74,3.74,0,0,1-1.9,3.3A6.46,6.46,0,0,1,191.2,75.2ZM165.3,60.8a58.47,58.47,0,0,1,22.1,4.4V32.4a49.84,49.84,0,0,0-42.2-.9v33A58.11,58.11,0,0,1,165.3,60.8Z" transform="translate(-34 -13.9)"/><rect class="cls-2" x="103.5" width="7.7" height="222.3"/><path class="cls-3" d="M78.1,81.9c9.9,0,17.2-8.1,17.2-18v-6c0-10-7.4-18-17.2-18S60.9,48,60.9,57.9v6C60.9,73.8,68.2,81.9,78.1,81.9Z" transform="translate(-34 -13.9)"/><path class="cls-2" d="M78.1,85.7C66.3,85.7,57,76.1,57,63.9v-6C57,45.6,66.3,36,78.1,36s21.1,9.6,21.1,21.9v6C99.2,76.1,89.9,85.7,78.1,85.7Zm0-42.1c-7.5,0-13.4,6.2-13.4,14.2v6c0,8,5.9,14.2,13.4,14.2s13.4-6.2,13.4-14.2v-6C91.5,49.9,85.6,43.6,78.1,43.6Z" transform="translate(-34 -13.9)"/><path class="cls-3" d="M68.5,94.3c-18.2,0-30.7,5.8-30.7,23v38.3a15.63,15.63,0,0,0,15.3,15.3l3.8,5V236h46V113.5h34.5c11.6,0,19.2-10.7,19.2-19.2Z" transform="translate(-34 -13.9)"/><path class="cls-2" d="M106.8,236.1H99.1V109.7h38.3c7.7,0,13-5.9,14.7-11.5H68.5c-23.8,0-26.8,10.2-26.8,19.2v38.3a11.84,11.84,0,0,0,11.5,11.5v7.7A19.47,19.47,0,0,1,34,155.7V117.4c0-17.8,11.6-26.8,34.5-26.8h92v3.8c0,10.9-9.4,23-23,23H106.8Z" transform="translate(-34 -13.9)"/><rect class="cls-2" x="19.2" y="103.4" width="7.7" height="118.8"/><rect class="cls-2" x="42.2" y="153.3" width="7.7" height="69"/></svg>