<svg id="Слой_1" data-name="Слой 1" xmlns="http://www.w3.org/2000/svg" viewBox="0 0 237.3 228.8"><defs><style>.cls-1{fill:#fff;}.cls-2{fill:#deb2b2;}.cls-3{fill:#666;}</style></defs><title>icon-about6</title><path class="cls-1" d="M194.5,87.4H55.5c-15.3,0-45,8-45,24.2V161c0,9.5,6.8,16.5,16.4,16.5l4.1-.2v57.3H219.1V177.3l4.1.2c9.5,0,16.4-7,16.4-16.5V111.6C239.5,95.4,209.8,87.4,194.5,87.4Z" transform="translate(-6.4 -5.8)"/><path class="cls-2" d="M125,71c-15.3,0-45,8.4-45,24.5V145c0,9.5,6.8,16,16.4,16h4.1v73.6h49.1V161h4.1c9.5,0,16.4-6.5,16.4-16V95.5C170,79.4,140.3,71,125,71Z" transform="translate(-6.4 -5.8)"/><path class="cls-3" d="M153.6,165.4v-8.2c7.2,0,12.3-5,12.3-12.3V95.5C165.9,83,139,75.1,125,75.1s-40.9,8-40.9,20.4V145c0,7.2,5,12.3,12.3,12.3v8.2c-11.8,0-20.4-8.6-20.4-20.4V95.5c0-19.1,31.5-28.6,49.1-28.6s49.1,9.6,49.1,28.6V145C174.1,156.8,165.5,165.4,153.6,165.4Z" transform="translate(-6.4 -5.8)"/><path class="cls-1" d="M125,58.7c11.4,0,20.4-9.3,20.4-20.9v-7A20.6,20.6,0,0,0,125,9.9c-11.4,0-20.4,9.3-20.4,20.9v7A20.6,20.6,0,0,0,125,58.7Z" transform="translate(-6.4 -5.8)"/><path class="cls-3" d="M125,62.8c-13.5,0-24.5-11.2-24.5-25v-7c0-13.8,11-25,24.5-25s24.5,11.2,24.5,25v7C149.5,51.6,138.5,62.8,125,62.8Zm0-48.7a16.63,16.63,0,0,0-16.4,16.8v7a16.4,16.4,0,1,0,32.8,0v-7A16.63,16.63,0,0,0,125,14.1Z" transform="translate(-6.4 -5.8)"/><path class="cls-3" d="M223.2,181.6v-8.2c7.2,0,12.3-5.1,12.3-12.4V111.6c0-12.5-26.5-20.1-40.9-20.1H178.2V83.3h16.4c16.6,0,49.1,8.5,49.1,28.3V161C243.6,172.7,234.8,181.6,223.2,181.6Z" transform="translate(-6.4 -5.8)"/><rect class="cls-3" x="208.6" y="122.5" width="8.2" height="106.3"/><path class="cls-1" d="M194.5,74.7c11.4,0,20.4-9.3,20.4-20.9v-7a20.6,20.6,0,0,0-20.4-20.9c-11.4,0-20.4,9.3-20.4,20.9v7C174.1,65.4,183.1,74.7,194.5,74.7Z" transform="translate(-6.4 -5.8)"/><path class="cls-3" d="M194.5,78.8c-13.5,0-24.5-11.2-24.5-25v-7c0-13.8,11-25,24.5-25S219,33,219,46.8v7A24.65,24.65,0,0,1,194.5,78.8Zm0-48.7a16.44,16.44,0,0,0-16.4,16.8v7a16.4,16.4,0,1,0,32.8,0v-7A16.44,16.44,0,0,0,194.5,30.1Z" transform="translate(-6.4 -5.8)"/><path class="cls-3" d="M26.8,181.6c-11.7,0-20.4-8.9-20.4-20.6V111.6c0-19.7,32.5-28.3,49.1-28.3H71.9v8.2H55.5c-14.4,0-40.9,7.6-40.9,20.1V161c0,7.3,5,12.4,12.3,12.4v8.2Z" transform="translate(-6.4 -5.8)"/><rect class="cls-3" x="20.4" y="122.5" width="8.2" height="106.3"/><path class="cls-1" d="M55.5,74.7A20.62,20.62,0,0,1,35,53.8v-7A20.6,20.6,0,0,1,55.4,25.9c11.4,0,20.4,9.3,20.4,20.9v7A20.39,20.39,0,0,1,55.5,74.7Z" transform="translate(-6.4 -5.8)"/><path class="cls-3" d="M55.5,78.8C42,78.8,31,67.6,31,53.8v-7c0-13.8,11-25,24.5-25S80,33.1,80,46.9v7A24.76,24.76,0,0,1,55.5,78.8Zm0-48.7A16.44,16.44,0,0,0,39.1,46.9v7a16.4,16.4,0,1,0,32.8,0v-7C71.8,37.5,64.6,30.1,55.5,30.1Z" transform="translate(-6.4 -5.8)"/><rect class="cls-3" x="139" y="106.1" width="8.2" height="122.7"/><rect class="cls-3" x="90" y="106.1" width="8.2" height="122.7"/><rect class="cls-3" x="114.5" y="151.1" width="8.2" height="77.7"/></svg>