<svg id="Слой_1" data-name="Слой 1" xmlns="http://www.w3.org/2000/svg" viewBox="0 0 210.6 234"><defs><style>.cls-1{fill:#deb2b2;}.cls-2{fill:#fff;}.cls-3{fill:#666;}</style></defs><title>icon-about3</title><rect class="cls-1" x="183.3" y="23.4" width="23.4" height="148.2"/><path class="cls-2" d="M43.1,11.9A19.46,19.46,0,0,0,23.6,31.4v156h156V11.9Z" transform="translate(-19.7 -8)"/><path class="cls-3" d="M27.5,187.4H19.7V31.4A23.43,23.43,0,0,1,43.1,8H183.5V167.9h-7.8V15.8H43.1A15.62,15.62,0,0,0,27.5,31.4Z" transform="translate(-19.7 -8)"/><path class="cls-2" d="M43.1,206.9a19.46,19.46,0,0,1-19.5-19.5h0a19.46,19.46,0,0,1,19.5-19.5H179.6v39Z" transform="translate(-19.7 -8)"/><path class="cls-3" d="M183.5,210.8H43.1a23.4,23.4,0,0,1,0-46.8H183.5Zm-140.4-39a15.6,15.6,0,1,0,0,31.2H175.7V171.8Z" transform="translate(-19.7 -8)"/><polygon class="cls-3" points="148.2 187.2 15.6 187.2 15.6 179.4 140.4 179.4 140.4 163.8 148.2 163.8 148.2 187.2"/><polygon class="cls-1" points="35.1 175.5 35.1 226.2 50.7 214.5 66.3 226.2 66.3 175.5 35.1 175.5"/><path class="cls-3" d="M89.9,242,70.4,227.4,50.9,242V179.6h39ZM70.4,217.6l11.7,8.8v-39H58.7v39Z" transform="translate(-19.7 -8)"/><rect class="cls-3" x="19.5" y="15.6" width="7.8" height="132.6"/><path class="cls-3" d="M214.7,215.6l-15.6-31.2V15.8A7.81,7.81,0,0,1,206.9,8h15.6a7.81,7.81,0,0,1,7.8,7.8V184.4Zm-7.8-33,7.8,15.6,7.8-15.6V15.8H206.9Z" transform="translate(-19.7 -8)"/><rect class="cls-3" x="183.3" y="167.7" width="23.4" height="7.8"/><rect class="cls-3" x="183.3" y="19.5" width="23.4" height="7.8"/><rect class="cls-1" x="62.4" y="50.3" width="58.5" height="31.2"/><path class="cls-3" d="M144.5,93.4H78.2v-39h66.3ZM86,85.6h50.7V62.2H86Z" transform="translate(-19.7 -8)"/></svg>