<svg id="Capa_2" data-name="Capa 2" xmlns="http://www.w3.org/2000/svg" viewBox="0 0 249.2 245.2"><defs><style>.cls-1,.cls-4{fill:#fff;}.cls-2{fill:#666;}.cls-3{fill:#deb2b2;}.cls-4{stroke:#fff;stroke-miterlimit:10;}</style></defs><title>icon-about5</title><g id="Capa_2-2" data-name="Capa 2"><path class="cls-1" d="M160.6,233.6v.1a4.12,4.12,0,0,1-4.1,4.1H87.2a4.14,4.14,0,0,1-4.1-4.2v-.1a4.12,4.12,0,0,1,4.1-4.1h69.3A4.14,4.14,0,0,1,160.6,233.6Z" transform="translate(0.4 -0.8)"/><path class="cls-1" d="M159.6,216.7v.4a4.12,4.12,0,0,1-4.1,4.1H88.3a4.14,4.14,0,0,1-4.1-4.2v-.1a3.67,3.67,0,0,1,3.8-3.5h.2l67.3-.1A3.73,3.73,0,0,1,159.6,216.7Z" transform="translate(0.4 -0.8)"/><path class="cls-1" d="M146.3,33.9a4.1,4.1,0,1,1-4.1,4.1A4.18,4.18,0,0,1,146.3,33.9Z" transform="translate(0.4 -0.8)"/><path class="cls-1" d="M178.9,54.3a4.1,4.1,0,1,1-4.1,4.1A4.18,4.18,0,0,1,178.9,54.3Z" transform="translate(0.4 -0.8)"/><circle class="cls-1" cx="199.7" cy="110.5" r="4.1"/><path class="cls-2" d="M210.8,107.2a11.91,11.91,0,0,1-7.3,15.4,12.22,12.22,0,0,1-15.6-7.4H162.7v8.2a4.06,4.06,0,0,1-4.1,4.1H142.3v8.2h12.2a4.06,4.06,0,0,1,4.1,4.1v8.9a12.24,12.24,0,1,1-8.1,0v-4.8H138.3a4.06,4.06,0,0,1-4.1-4.1V127.6H126v77.6h29.9a11.71,11.71,0,0,1,11.7,11.7,12.33,12.33,0,0,1-2.7,7.8,12.27,12.27,0,0,1,3.8,8.8v.1A12.23,12.23,0,0,1,156.5,246H87.2a12.37,12.37,0,0,1-8.5-21.2,12.37,12.37,0,0,1-2.7-7.6,11.55,11.55,0,0,1,4.9-9.7c-.9-10.3-9.1-22.2-16.5-32.7-3.5-5-6.8-9.7-9.3-14.2-14.1-25-22.9-54.2-22.9-76.3a79.57,79.57,0,0,1,26-58.89c16.13-14.91,38.56-24,63.71-24A4.06,4.06,0,0,1,126,5.5v65h16.3V49.4a12.24,12.24,0,1,1,8.1,0V70.5h8.2a4.06,4.06,0,0,1,4.1,4.1v8.2h12.2v-13a12.24,12.24,0,1,1,8.1,0v17a4.06,4.06,0,0,1-4.1,4.1H162.6v16.4h25.2a12.19,12.19,0,0,1,23-.1Zm-7.4,4.1a4.1,4.1,0,1,0-4.1,4.1A4.06,4.06,0,0,0,203.4,111.3ZM183,58.4a4.06,4.06,0,0,0-4.1-4.1,4.18,4.18,0,0,0-4.1,4.1,4.1,4.1,0,1,0,8.2,0ZM160.6,233.7v-.1a4.14,4.14,0,0,0-4.1-4.2H87.2a4.12,4.12,0,0,0-4.1,4.1v.1a4.14,4.14,0,0,0,4.1,4.2h69.3A4.12,4.12,0,0,0,160.6,233.7Zm-1-16.6v-.4a3.73,3.73,0,0,0-4.1-3.4l-67.3.1H88a3.67,3.67,0,0,0-3.8,3.5v.1a4.14,4.14,0,0,0,4.1,4.2h67.2A4.12,4.12,0,0,0,159.6,217.1Zm-1-56.9a4.06,4.06,0,0,0-4.1-4.1,4.12,4.12,0,0,0-4.1,4.1,4.1,4.1,0,0,0,8.2,0Zm-4.1-40.7V78.7H126v40.8ZM150.4,38a4.06,4.06,0,0,0-4.1-4.1,4.18,4.18,0,0,0-4.1,4.1,4.1,4.1,0,1,0,8.2,0ZM117.8,149.5v-14A36.68,36.68,0,0,1,85.2,99.1,36.1,36.1,0,0,1,117.8,63V49l-.7,3.2a4.17,4.17,0,0,1-3.3,3.2,43.76,43.76,0,0,0-7.1,1.9,4.07,4.07,0,0,1-4.4-1.1l-3.8-4.3c-2.1,1.1-4.1,2.3-6.1,3.6l1.8,5.4A3.9,3.9,0,0,1,93,65.3a42.57,42.57,0,0,0-5.2,5.2,4.25,4.25,0,0,1-4.4,1.2L78,69.9A61.11,61.11,0,0,0,74.4,76l4.3,3.8a4,4,0,0,1,1.1,4.4,43.76,43.76,0,0,0-1.9,7.1,4,4,0,0,1-3.2,3.3L69,95.7v7.2l5.7,1.1a4.31,4.31,0,0,1,3.2,3.3,43.76,43.76,0,0,0,1.9,7.1,4.07,4.07,0,0,1-1.1,4.4l-4.3,3.8c1.1,2.1,2.3,4.1,3.6,6.1l5.4-1.8a4.06,4.06,0,0,1,4.4,1.2,42.57,42.57,0,0,0,5.2,5.2,4.25,4.25,0,0,1,1.2,4.4l-1.8,5.4a61.11,61.11,0,0,0,6.1,3.6l3.8-4.3a3.75,3.75,0,0,1,3-1.4,3.18,3.18,0,0,1,1.4.2,43.76,43.76,0,0,0,7.1,1.9,4,4,0,0,1,3.3,3.2Zm0-22.2V70.9a28.48,28.48,0,0,0,0,56.4Zm0-89.1V9.7c-43.7,1.9-77.4,34-77.4,74.6,0,20.5,8.5,48.8,21.8,72.3,2.3,4.1,5.5,8.7,8.9,13.5C78.8,181,87.3,193.2,88.9,205h28.8V159.9l-3.4-.3a4.15,4.15,0,0,1-3.5-3.2l-1.2-5.9a28.06,28.06,0,0,1-3.1-.8l-4.1,4.5a4,4,0,0,1-4.6,1A66,66,0,0,1,85,147.7a4,4,0,0,1-1.4-4.5l1.9-5.7c-.7-.7-1.5-1.4-2.2-2.2l-5.7,1.9a4,4,0,0,1-4.5-1.4A60.52,60.52,0,0,1,65.6,123a4,4,0,0,1,1-4.6l4.5-4.1c-.3-1-.6-2-.8-3L64,110a4.16,4.16,0,0,1-3.3-4V92.1a4.16,4.16,0,0,1,3.3-4l6.4-1.3c.2-1,.5-2,.8-3l-4.5-4.1a4,4,0,0,1-1-4.6,66,66,0,0,1,7.5-12.8,4,4,0,0,1,4.5-1.4l5.7,1.9c.7-.7,1.4-1.5,2.2-2.2l-1.9-5.7a3.94,3.94,0,0,1,1.4-4.5,60.52,60.52,0,0,1,12.8-7.5,4,4,0,0,1,4.6,1l4.1,4.5c1.1-.3,2.1-.6,3.1-.8l1.2-5.9a4.15,4.15,0,0,1,3.5-3.2Z" transform="translate(0.4 -0.8)"/><rect class="cls-1" x="126.4" y="77.9" width="28.5" height="40.8"/><path class="cls-3" d="M117.8,135.5v14l-.7-3.2a4,4,0,0,0-3.3-3.2,43.76,43.76,0,0,1-7.1-1.9,3.18,3.18,0,0,0-1.4-.2,3.75,3.75,0,0,0-3,1.4l-3.8,4.3a61.11,61.11,0,0,1-6.1-3.6l1.8-5.4a4.25,4.25,0,0,0-1.2-4.4,42.57,42.57,0,0,1-5.2-5.2,4.06,4.06,0,0,0-4.4-1.2L78,128.7c-1.3-2-2.5-4-3.6-6.1l4.3-3.8a4.07,4.07,0,0,0,1.1-4.4,43.76,43.76,0,0,1-1.9-7.1,4.31,4.31,0,0,0-3.2-3.3L69,102.9V95.7l5.7-1.1a4,4,0,0,0,3.2-3.3,43.76,43.76,0,0,1,1.9-7.1,4,4,0,0,0-1.1-4.4L74.4,76A61.11,61.11,0,0,1,78,69.9l5.4,1.8a4.25,4.25,0,0,0,4.4-1.2A42.57,42.57,0,0,1,93,65.3a3.9,3.9,0,0,0,1.2-4.4l-1.8-5.4c2-1.3,4-2.5,6.1-3.6l3.8,4.3a4.07,4.07,0,0,0,4.4,1.1,43.76,43.76,0,0,1,7.1-1.9,4.17,4.17,0,0,0,3.3-3.2l.7-3.2V63A36.1,36.1,0,0,0,85.2,99.1,36.68,36.68,0,0,0,117.8,135.5Z" transform="translate(0.4 -0.8)"/><path class="cls-3" d="M117.8,9.7V38.2l-3.4.3a4.15,4.15,0,0,0-3.5,3.2l-1.2,5.9c-1,.2-2,.5-3.1.8l-4.1-4.5a4,4,0,0,0-4.6-1,60.52,60.52,0,0,0-12.8,7.5,3.94,3.94,0,0,0-1.4,4.5l1.9,5.7c-.8.7-1.5,1.5-2.2,2.2l-5.7-1.9a4,4,0,0,0-4.5,1.4,66,66,0,0,0-7.5,12.8,4,4,0,0,0,1,4.6l4.5,4.1c-.3,1-.6,2-.8,3L64,88.1a4.16,4.16,0,0,0-3.3,4V106a4.16,4.16,0,0,0,3.3,4l6.3,1.3c.2,1,.5,2,.8,3l-4.5,4.1a4,4,0,0,0-1,4.6,60.52,60.52,0,0,0,7.5,12.8,4,4,0,0,0,4.5,1.4l5.7-1.9c.7.8,1.5,1.5,2.2,2.2l-1.9,5.7a4,4,0,0,0,1.4,4.5,66,66,0,0,0,12.8,7.5,4,4,0,0,0,4.6-1l4.1-4.5a28.06,28.06,0,0,0,3.1.8l1.2,5.9a4.15,4.15,0,0,0,3.5,3.2l3.4.3V205H88.9c-1.6-11.8-10.1-24-17.8-34.9-3.4-4.8-6.6-9.4-8.9-13.5-13.3-23.5-21.8-51.8-21.8-72.3C40.4,43.7,74.1,11.6,117.8,9.7Z" transform="translate(0.4 -0.8)"/><path class="cls-2" d="M161.2,187.7a73.35,73.35,0,0,0-3.8,8l7.6,3a56.57,56.57,0,0,1,3.4-7Z" transform="translate(0.4 -0.8)"/><path class="cls-2" d="M170.4,173.4c-1.6,2.3-3.2,4.6-4.7,7l6.8,4.4c1.5-2.3,3-4.5,4.6-6.8Z" transform="translate(0.4 -0.8)"/><path class="cls-2" d="M179.6,159.8c-1.4,2.2-2.9,4.4-4.5,6.8l6.7,4.6c1.7-2.4,3.3-4.8,4.7-7.1Z" transform="translate(0.4 -0.8)"/><path class="cls-2" d="M187.3,145.6c-1.2,2.4-2.4,4.9-3.7,7.2l7.2,3.8c1.3-2.5,2.6-5,3.8-7.6Z" transform="translate(0.4 -0.8)"/><path class="cls-2" d="M193.6,130.6c-.9,2.5-2,5-3,7.5l7.5,3.2c1.1-2.6,2.2-5.2,3.2-7.9Z" transform="translate(0.4 -0.8)"/><path class="cls-2" d="M211.5,83.5l-8.2.1v.7q0,3.45-.3,7.2l8.1.7c.2-2.7.3-5.4.3-7.9Z" transform="translate(0.4 -0.8)"/><path class="cls-2" d="M209.5,66.1,201.6,68c.6,2.5,1,5.1,1.4,7.7l8.1-1C210.6,71.8,210.1,69,209.5,66.1Z" transform="translate(0.4 -0.8)"/><path class="cls-2" d="M203.6,49.7l-7.3,3.6a73.28,73.28,0,0,1,3,7.2l7.7-2.7A72.72,72.72,0,0,0,203.6,49.7Z" transform="translate(0.4 -0.8)"/><path class="cls-2" d="M194.3,34.9,187.9,40c1.6,2.1,3.2,4.2,4.6,6.4l6.9-4.4C197.8,39.6,196.1,37.2,194.3,34.9Z" transform="translate(0.4 -0.8)"/><path class="cls-2" d="M182.1,22.5l-5.2,6.3c2,1.7,4,3.5,5.8,5.3l5.8-5.7A71,71,0,0,0,182.1,22.5Z" transform="translate(0.4 -0.8)"/><path class="cls-2" d="M167.6,12.7l-3.9,7.2c2.3,1.3,4.6,2.6,6.8,4.1l4.5-6.8A76.57,76.57,0,0,0,167.6,12.7Z" transform="translate(0.4 -0.8)"/><path class="cls-2" d="M151.7,6l-2.5,7.8c2.5.8,5,1.7,7.4,2.7L159.8,9Q155.9,7.35,151.7,6Z" transform="translate(0.4 -0.8)"/><path class="cls-2" d="M134.8,2.2l-1,8.1a67,67,0,0,1,7.8,1.4l1.8-8C140.5,3.1,137.6,2.6,134.8,2.2Z" transform="translate(0.4 -0.8)"/><rect class="cls-1" x="8.2" y="220.5" width="8.2" height="8.2"/><rect class="cls-1" x="8.2" y="236.9" width="8.2" height="8.2"/><rect class="cls-1" x="16.3" y="228.7" width="8.2" height="8.2"/><rect class="cls-1" y="228.7" width="8.2" height="8.2"/><rect class="cls-4" x="232.3" y="0.5" width="8.2" height="8.2"/><rect class="cls-4" x="232.3" y="16.8" width="8.2" height="8.2"/><rect class="cls-4" x="240.5" y="8.6" width="8.2" height="8.2"/><rect class="cls-4" x="224.2" y="8.6" width="8.2" height="8.2"/></g></svg>