<svg id="Слой_1" data-name="Слой 1" xmlns="http://www.w3.org/2000/svg" viewBox="0 0 236.2 239.2"><defs><style>.cls-1{fill:#deb2b2;}.cls-2{fill:#fff;}.cls-3{fill:#666;}</style></defs><title>icon-about4</title><path class="cls-1" d="M36.9,243.2V164.5c-9.8,0-21.9-12.1-21.9-21.9V98.9c0-11.6,15.7-26.2,30.6-26.2h35c13.6,0,30.6,12.4,30.6,30.6v39.3c0,9.8-12.1,21.9-21.9,21.9v78.7Z" transform="translate(-10.7 -4)"/><path class="cls-2" d="M168,243.2V164.5c-8.7,0-21.9-12.1-21.9-21.9V98.9c0-11.6,15.7-26.2,30.6-26.2h35c13.6,0,30.6,12.4,30.6,30.6v39.3c0,9.8-13.1,21.9-21.9,21.9v78.7Z" transform="translate(-10.7 -4)"/><path class="cls-2" d="M63.1,58.3C74.8,58.3,85,48.7,85,36.9v-7C85,18,74.9,8.4,63.1,8.4S41.2,18,41.2,29.8v7A22,22,0,0,0,63.1,58.3Z" transform="translate(-10.7 -4)"/><path class="cls-3" d="M63.1,62.6c-14.2,0-26.2-11.8-26.2-25.8v-7c0-14,12-25.8,26.2-25.8S89.3,15.8,89.3,29.8v7C89.4,50.8,77.4,62.6,63.1,62.6Zm0-49.8c-9.5,0-17.5,7.8-17.5,17v7c0,9.2,8,17,17.5,17s17.5-7.8,17.5-17v-7C80.6,20.6,72.6,12.8,63.1,12.8Z" transform="translate(-10.7 -4)"/><path class="cls-3" d="M36.9,168.9c-12.3,0-26.2-14-26.2-26.2V103.4c0-20,18.5-35,35-35h35c16.9,0,35,20.5,35,35H107c0-9.1-13.9-26.2-26.2-26.2h-35c-10.7,0-26.2,10.2-26.2,26.2v39.3c0,7.4,10.1,17.5,17.5,17.5v8.7Z" transform="translate(-10.7 -4)"/><rect class="cls-3" x="21.9" y="99.3" width="8.7" height="139.9"/><path class="cls-3" d="M93.7,243.2H85v-83h4.4c7.4,0,17.5-10.1,17.5-17.5V129.6h8.7v13.1c0,10.8-10.9,23-21.9,25.7Z" transform="translate(-10.7 -4)"/><rect class="cls-3" x="48.1" y="160.5" width="8.7" height="78.7"/><rect class="cls-3" x="52.4" y="108.1" width="43.7" height="8.7"/><rect class="cls-3" x="104.9" y="108.1" width="8.7" height="8.7"/><path class="cls-2" d="M194.3,58.3c-11.7,0-21.9-9.6-21.9-21.4v-7c0-11.8,10.1-21.4,21.9-21.4s21.9,9.6,21.9,21.4v7C216.1,48.7,206,58.3,194.3,58.3Z" transform="translate(-10.7 -4)"/><path class="cls-3" d="M194.3,62.6C180,62.6,168,50.8,168,36.9v-7c0-14,12-25.8,26.2-25.8s26.2,11.8,26.2,25.8v7C220.5,50.8,208.5,62.6,194.3,62.6Zm0-49.8c-9.5,0-17.5,7.8-17.5,17v7c0,9.2,8,17,17.5,17s17.5-7.8,17.5-17v-7C211.7,20.6,203.7,12.8,194.3,12.8Z" transform="translate(-10.7 -4)"/><path class="cls-3" d="M220.5,168.9v-8.7c7.4,0,17.5-10.1,17.5-17.5V103.4c0-16-15.5-26.2-26.2-26.2h-35c-12.3,0-26.2,17.1-26.2,26.2h-8.7c0-14.4,18.1-35,35-35h35c16.5,0,35,15,35,35v39.3C246.7,154.9,232.7,168.9,220.5,168.9Z" transform="translate(-10.7 -4)"/><rect class="cls-3" x="205.4" y="99.3" width="8.7" height="139.9"/><path class="cls-3" d="M172.4,243.2h-8.7V168.3c-10.2-2.8-21.9-14.5-21.9-25.6V129.6h8.7v13.1c0,7.4,11.2,17.5,17.5,17.5h4.4Z" transform="translate(-10.7 -4)"/><rect class="cls-3" x="179.2" y="160.5" width="8.7" height="78.7"/><rect class="cls-3" x="139.9" y="108.1" width="43.7" height="8.7"/><polygon class="cls-3" points="169.2 137.4 163 131.2 181.7 112.4 163 93.7 169.2 87.5 194.1 112.4 169.2 137.4"/><polygon class="cls-3" points="66.8 137.4 41.9 112.4 66.8 87.5 73 93.7 54.3 112.4 73 131.2 66.8 137.4"/><rect class="cls-3" x="122.4" y="108.1" width="8.7" height="8.7"/></svg>