<?xml version="1.0" encoding="utf-8"?>
<!-- Generator: Adobe Illustrator 22.0.0, SVG Export Plug-In . SVG Version: 6.00 Build 0)  -->
<svg version="1.1" xmlns="http://www.w3.org/2000/svg" xmlns:xlink="http://www.w3.org/1999/xlink" x="0px" y="0px"
	 viewBox="0 0 250 250" style="enable-background:new 0 0 250 250;" xml:space="preserve">
<style type="text/css">
	.st0{display:none;}
	.st1{display:inline;}
	.st2{fill:#EBEBED;}
	.st3{fill:#483798;}
	.st4{fill:#CFC3FF;}
	.st5{fill:#E8E8E9;}
	.st6{fill:#CFC3FF;stroke:#483798;stroke-width:2;stroke-miterlimit:10;}
	.st7{fill:#FFFFFF;}
	.st8{fill:#920100;}
</style>
<g id="Слой_1" class="st0">
	<g class="st1">
		<path class="st2" d="M33.8,97.2h-8.9c-7.6,0-13.4-5.8-13.4-13.4V218c0,7.6,5.8,13.4,13.4,13.4h8.9V97.2z"/>
	</g>
	<g class="st1">
		<rect x="181.4" y="12.2" class="st3" width="8.9" height="26.8"/>
	</g>
	<g class="st1">
		
			<rect x="197" y="27.2" transform="matrix(0.4999 -0.8661 0.8661 0.4999 76.8966 196.5511)" class="st3" width="23.3" height="8.9"/>
	</g>
	<g class="st1">
		
			<rect x="214.4" y="44.6" transform="matrix(0.8661 -0.4999 0.4999 0.8661 5.7522 119.5489)" class="st3" width="23.3" height="8.9"/>
	</g>
	<g class="st1">
		<rect x="221.6" y="70.3" class="st3" width="22.4" height="8.9"/>
	</g>
	<g class="st1">
		<path class="st2" d="M11.5,83.8c0,7.6,5.8,13.4,13.4,13.4h169.9V70.3H24.9C17.3,70.3,11.5,76.2,11.5,83.8z"/>
	</g>
	<g class="st1">
		<path class="st3" d="M199.3,97.2h-8.9V74.8H24.9c-5.1,0-8.9,3.8-8.9,8.9H7c0-10,7.9-17.9,17.9-17.9h174.4L199.3,97.2L199.3,97.2z"
			/>
	</g>
	<g class="st1">
		<polyline class="st4" points="172.9,97.2 109.9,34.2 46.6,97.2 		"/>
	</g>
	<g class="st1">
		<polygon class="st3" points="49.8,100.3 43.5,94 109.9,27.9 176,94 169.7,100.3 109.9,40.5 		"/>
	</g>
	<g class="st1">
		<path class="st5" d="M141.2,97.2l-21.8-21.9c-6.3,6.3-12.6,6.3-19,0L78.5,97.2"/>
	</g>
	<g class="st1">
		<path class="st3" d="M81.7,100.3L75.4,94l25-25.1l3.2,3.2c4.5,4.5,8.1,4.5,12.6,0l3.2-3.2L144.3,94l-6.3,6.3l-18.9-19
			c-6,4.2-12.4,4.2-18.4,0L81.7,100.3z"/>
	</g>
	<g class="st1">
		<path class="st3" d="M221.6,235.8H24.9c-10,0-17.9-7.9-17.9-17.9V83.8h8.9c0,5.1,3.8,8.9,8.9,8.9h196.8V235.8z M15.9,99.3v118.6
			c0,5.1,3.8,8.9,8.9,8.9h187.8V101.6H24.9C21.6,101.6,18.6,100.8,15.9,99.3z"/>
	</g>
	<g class="st1">
		<path class="st6" d="M221.6,186.6h-64.8c-13.6,0-24.6-11-24.6-24.6l0,0c0-13.6,11-24.6,24.6-24.6h64.8c4.9,0,8.9,4,8.9,8.9v31.3
			C230.6,182.6,226.6,186.6,221.6,186.6z"/>
		<path class="st3" d="M221.6,191.1h-64.8c-16,0-29.1-13-29.1-29.1s13-29.1,29.1-29.1h64.8c7.4,0,13.4,6,13.4,13.4v31.3
			C235.1,185.1,229,191.1,221.6,191.1z M156.8,141.9c-11.1,0-20.1,9-20.1,20.1s9,20.1,20.1,20.1h64.8c2.5,0,4.5-2,4.5-4.5v-31.3
			c0-2.5-2-4.5-4.5-4.5L156.8,141.9L156.8,141.9z"/>
	</g>
	<g class="st1">
		<circle class="st7" cx="161.3" cy="162" r="11.2"/>
		<path class="st3" d="M161.3,177.7c-8.6,0-15.7-7-15.7-15.7s7-15.7,15.7-15.7c8.6,0,15.7,7,15.7,15.7S169.9,177.7,161.3,177.7z
			 M161.3,155.3c-3.7,0-6.7,3-6.7,6.7s3,6.7,6.7,6.7s6.7-3,6.7-6.7S165,155.3,161.3,155.3z"/>
	</g>
</g>
<g id="Capa_2">
	<g>
		<g>
			<path class="st8" d="M212.8,108.2c-1.7-4.9-6.3-8.1-11.5-8.1c-5.2,0-9.8,3.3-11.5,8.2h-25.2V91.9h16.3c2.3,0,4.1-1.8,4.1-4.1
				c0,0,0,0,0,0V70.8c6.4-2.3,9.7-9.2,7.5-15.6c-2.3-6.4-9.2-9.7-15.6-7.5c-6.4,2.3-9.7,9.2-7.5,15.6c1.2,3.5,4,6.2,7.5,7.5v13
				h-12.2v-8.2c0-2.3-1.8-4.1-4.1-4.1c0,0,0,0,0,0h-8.2V50.4c6.4-2.3,9.7-9.2,7.5-15.6c-2.3-6.4-9.2-9.7-15.6-7.5
				c-6.4,2.3-9.7,9.2-7.5,15.6c1.2,3.5,4,6.2,7.5,7.5v21.1H128V6.5c0-2.3-1.8-4.1-4.1-4.1c0,0,0,0,0,0c-50.3,0-89.7,36.4-89.7,82.9
				c0,22.1,8.8,51.3,22.9,76.3c2.5,4.5,5.8,9.2,9.3,14.2c7.4,10.5,15.6,22.4,16.5,32.7c-3.1,2.2-5,5.8-4.9,9.7c0,2.8,1,5.4,2.7,7.6
				c-2.4,2.4-3.8,5.6-3.7,9c0,6.7,5.5,12.2,12.2,12.2h69.3c6.8,0,12.3-5.6,12.2-12.4c0,0,0-0.1,0-0.1c0-3.3-1.4-6.5-3.8-8.8
				c1.8-2.2,2.7-5,2.7-7.8c0-6.5-5.3-11.7-11.7-11.7c-0.2,0-0.3,0-0.5,0H128v-77.6h8.2v12.2c0,2.3,1.8,4.1,4.1,4.1c0,0,0,0,0,0h12.2
				v4.8c-6.4,2.3-9.7,9.2-7.5,15.6c2.3,6.4,9.2,9.7,15.6,7.5c6.4-2.3,9.7-9.2,7.5-15.6c-1.2-3.5-4-6.2-7.5-7.5v-8.9
				c0-2.3-1.8-4.1-4.1-4.1c0,0,0,0,0,0h-12.2v-8.2h16.3c2.3,0,4.1-1.8,4.1-4.1c0,0,0,0,0,0v-8.2h25.2c2.3,6.3,9.2,9.7,15.6,7.4
				C211.8,121.5,215.1,114.5,212.8,108.2z M180.9,55.3c2.3,0,4.1,1.8,4.1,4.1s-1.8,4.1-4.1,4.1s-4.1-1.8-4.1-4.1
				C176.9,57.1,178.7,55.3,180.9,55.3z M73.1,171.1c-3.4-4.8-6.6-9.4-8.9-13.5c-13.3-23.5-21.8-51.8-21.8-72.3
				c0-40.6,33.7-72.7,77.4-74.6v28.5c-1.1,0.1-2.2,0.2-3.4,0.3c-1.7,0.2-3.1,1.5-3.5,3.2l-1.2,5.9c-1,0.2-2,0.5-3.1,0.8l-4.1-4.5
				c-1.2-1.3-3-1.7-4.6-1c-4.6,2-8.9,4.5-12.8,7.5c-1.4,1-2,2.9-1.4,4.5l1.9,5.7c-0.8,0.7-1.5,1.5-2.2,2.2l-5.7-1.9
				c-1.7-0.5-3.5,0-4.5,1.4c-3,4-5.5,8.3-7.5,12.8c-0.7,1.6-0.3,3.5,1,4.6l4.5,4.1c-0.3,1-0.6,2-0.8,3L66,89.1
				c-1.9,0.4-3.3,2.1-3.3,4V107c0,1.9,1.4,3.6,3.3,4l6.3,1.3c0.2,1,0.5,2,0.8,3l-4.5,4.1c-1.3,1.2-1.7,3-1,4.6
				c2,4.6,4.5,8.9,7.5,12.8c1.1,1.4,2.9,2,4.5,1.4l5.7-1.9c0.7,0.8,1.5,1.5,2.2,2.2l-1.9,5.7c-0.5,1.7,0,3.5,1.4,4.5
				c4,3,8.3,5.5,12.8,7.5c1.6,0.7,3.5,0.3,4.6-1l4.1-4.5c1,0.3,2,0.6,3.1,0.8l1.2,5.9c0.4,1.7,1.8,3,3.5,3.2
				c1.2,0.1,2.3,0.2,3.4,0.3v45.1H90.9C89.3,194.2,80.8,182,73.1,171.1z M87.2,100.1c0,18.7,14.1,34.3,32.6,36.4v14l-0.7-3.2
				c-0.3-1.6-1.6-2.9-3.3-3.2c-2.4-0.4-4.8-1.1-7.1-1.9c-0.4-0.2-0.9-0.2-1.4-0.2c-1.2,0-2.3,0.5-3,1.4l-3.8,4.3
				c-2.1-1.1-4.2-2.3-6.1-3.6l1.8-5.4c0.5-1.6,0-3.3-1.2-4.4c-1.9-1.6-3.6-3.3-5.2-5.2c-1.1-1.3-2.8-1.7-4.4-1.2l-5.4,1.8
				c-1.3-2-2.5-4-3.6-6.1l4.3-3.8c1.2-1.1,1.7-2.9,1.1-4.4c-0.8-2.3-1.5-4.7-1.9-7.1c-0.3-1.6-1.6-2.9-3.2-3.3l-5.7-1.1v-7.2
				l5.7-1.1c1.6-0.3,2.9-1.6,3.2-3.3c0.4-2.4,1.1-4.8,1.9-7.1c0.6-1.6,0.1-3.3-1.1-4.4l-4.3-3.8c1.1-2.1,2.3-4.2,3.6-6.1l5.4,1.8
				c1.6,0.5,3.3,0,4.4-1.2c1.6-1.9,3.3-3.6,5.2-5.2c1.3-1.1,1.8-2.8,1.2-4.4l-1.8-5.4c2-1.3,4-2.5,6.1-3.6l3.8,4.3
				c1.1,1.2,2.9,1.7,4.4,1.1c2.3-0.8,4.7-1.5,7.1-1.9c1.6-0.3,2.9-1.5,3.3-3.2l0.7-3.2v14C101.3,65.7,87.2,81.4,87.2,100.1z
				 M119.8,71.9v56.4c-15.6-2.2-26.4-16.7-24.2-32.2C97.4,83.5,107.3,73.7,119.8,71.9z M162.6,234.7c0,2.2-1.8,4.1-4.1,4.1H89.2
				c-2.3,0-4.1-1.9-4.1-4.2c0,0,0-0.1,0-0.1c0-2.2,1.8-4.1,4.1-4.1h69.3c2.3,0,4.1,1.9,4.1,4.2C162.6,234.6,162.6,234.7,162.6,234.7
				z M157.5,214.3c2.1-0.2,3.9,1.3,4.1,3.4c0,0.1,0,0.3,0,0.4c0,2.2-1.8,4.1-4.1,4.1H90.3c-2.3,0-4.1-1.9-4.1-4.2c0,0,0-0.1,0-0.1
				c0.1-2,1.8-3.6,3.8-3.5c0.1,0,0.2,0,0.2,0L157.5,214.3L157.5,214.3z M156.5,157.1c2.3,0,4.1,1.8,4.1,4.1s-1.8,4.1-4.1,4.1
				s-4.1-1.8-4.1-4.1C152.4,159,154.2,157.1,156.5,157.1z M148.3,34.9c2.3,0,4.1,1.8,4.1,4.1c0,2.3-1.8,4.1-4.1,4.1
				s-4.1-1.8-4.1-4.1C144.3,36.7,146.1,34.9,148.3,34.9z M156.5,120.5H128V79.7h28.5V120.5z M201.3,116.4c-2.3,0-4.1-1.8-4.1-4.1
				c0-2.3,1.8-4.1,4.1-4.1s4.1,1.8,4.1,4.1C205.4,114.6,203.6,116.4,201.3,116.4z"/>
		</g>
	</g>
	<g>
		<g>
			<path class="st8" d="M163.2,188.7c-1.4,2.6-2.7,5.2-3.8,8l7.6,3c1-2.4,2.1-4.8,3.4-7L163.2,188.7z"/>
		</g>
	</g>
	<g>
		<g>
			<path class="st8" d="M172.4,174.4c-1.6,2.3-3.2,4.6-4.7,7l6.8,4.4c1.5-2.3,3-4.5,4.6-6.8L172.4,174.4z"/>
		</g>
	</g>
	<g>
		<g>
			<path class="st8" d="M181.6,160.8c-1.4,2.2-2.9,4.4-4.5,6.8l6.7,4.6c1.7-2.4,3.3-4.8,4.7-7.1L181.6,160.8z"/>
		</g>
	</g>
	<g>
		<g>
			<path class="st8" d="M189.3,146.6c-1.2,2.4-2.4,4.9-3.7,7.2l7.2,3.8c1.3-2.5,2.6-5,3.8-7.6L189.3,146.6z"/>
		</g>
	</g>
	<g>
		<g>
			<path class="st8" d="M195.6,131.6c-0.9,2.5-2,5-3,7.5l7.5,3.2c1.1-2.6,2.2-5.2,3.2-7.9L195.6,131.6z"/>
		</g>
	</g>
	<g>
		<g>
			<path class="st8" d="M213.5,84.5l-8.2,0.1l0,0.7c0,2.3-0.1,4.7-0.3,7.2l8.1,0.7c0.2-2.7,0.3-5.4,0.3-7.9L213.5,84.5z"/>
		</g>
	</g>
	<g>
		<g>
			<path class="st8" d="M211.5,67.1l-7.9,1.9c0.6,2.5,1,5.1,1.4,7.7l8.1-1C212.6,72.8,212.1,70,211.5,67.1z"/>
		</g>
	</g>
	<g>
		<g>
			<path class="st8" d="M205.6,50.7l-7.3,3.6c1.1,2.4,2.2,4.8,3,7.2l7.7-2.7C208,56,206.9,53.3,205.6,50.7z"/>
		</g>
	</g>
	<g>
		<g>
			<path class="st8" d="M196.3,35.9l-6.4,5.1c1.6,2.1,3.2,4.2,4.6,6.4l6.9-4.4C199.8,40.6,198.1,38.2,196.3,35.9z"/>
		</g>
	</g>
	<g>
		<g>
			<path class="st8" d="M184.1,23.5l-5.2,6.3c2,1.7,4,3.5,5.8,5.3l5.8-5.7C188.5,27.3,186.3,25.3,184.1,23.5z"/>
		</g>
	</g>
	<g>
		<g>
			<path class="st8" d="M169.6,13.7l-3.9,7.2c2.3,1.3,4.6,2.6,6.8,4.1l4.5-6.8C174.7,16.6,172.2,15.1,169.6,13.7z"/>
		</g>
	</g>
	<g>
		<g>
			<path class="st8" d="M153.7,7l-2.5,7.8c2.5,0.8,5,1.7,7.4,2.7l3.2-7.5C159.2,8.9,156.5,7.9,153.7,7z"/>
		</g>
	</g>
	<g>
		<g>
			<path class="st8" d="M136.8,3.2l-1,8.1c2.6,0.3,5.3,0.8,7.8,1.4l1.8-8C142.5,4.1,139.6,3.6,136.8,3.2z"/>
		</g>
	</g>
	<g>
		<g>
			<rect x="9.8" y="222.3" class="st8" width="8.2" height="8.2"/>
		</g>
	</g>
	<g>
		<g>
			<rect x="9.8" y="238.7" class="st8" width="8.2" height="8.2"/>
		</g>
	</g>
	<g>
		<g>
			<rect x="17.9" y="230.5" class="st8" width="8.2" height="8.2"/>
		</g>
	</g>
	<g>
		<g>
			<rect x="1.6" y="230.5" class="st8" width="8.2" height="8.2"/>
		</g>
	</g>
	<g>
		<g>
			<rect x="233.9" y="2.3" class="st8" width="8.2" height="8.2"/>
		</g>
	</g>
	<g>
		<g>
			<rect x="233.9" y="18.6" class="st8" width="8.2" height="8.2"/>
		</g>
	</g>
	<g>
		<g>
			<rect x="242.1" y="10.4" class="st8" width="8.2" height="8.2"/>
		</g>
	</g>
	<g>
		<g>
			<rect x="225.8" y="10.4" class="st8" width="8.2" height="8.2"/>
		</g>
	</g>
</g>
</svg>
