<?xml version="1.0" encoding="utf-8"?>
<!-- Generator: Adobe Illustrator 22.0.0, SVG Export Plug-In . SVG Version: 6.00 Build 0)  -->
<svg version="1.1" id="Capa_1" xmlns="http://www.w3.org/2000/svg" xmlns:xlink="http://www.w3.org/1999/xlink" x="0px" y="0px"
	 viewBox="0 0 250 250" style="enable-background:new 0 0 250 250;" xml:space="preserve">
<style type="text/css">
	.st0{display:none;}
	.st1{display:inline;}
	.st2{fill:#FFFFFF;}
	.st3{fill:#7D3E0C;}
	.st4{fill:#FFC094;}
	.st5{fill:#920100;}
	.st6{fill:#CE7A7A;}
</style>
<g id="Слой_1" class="st0">
	<g class="st1">
		<g>
			<path class="st2" d="M227.9,39.8H34.3c-6.2,0-13,5.1-13,11.3v132c0,6.2,6.8,12.2,13,12.2h193.6c6.2,0,11.9-6,11.9-12.2v-132
				C239.8,45,234,39.8,227.9,39.8z"/>
		</g>
		<g>
			<rect x="36.1" y="50.9" class="st3" width="188.9" height="7.4"/>
		</g>
		<g>
			<rect x="217.6" y="65.8" class="st3" width="7.4" height="103.7"/>
		</g>
		<g>
			<rect x="36.1" y="176.8" class="st3" width="188.9" height="7.4"/>
		</g>
		<g>
			<rect x="36.1" y="113.9" class="st3" width="7.4" height="18.5"/>
		</g>
		<g>
			<rect x="36.1" y="158.3" class="st3" width="7.4" height="11.1"/>
		</g>
		<g>
			<rect x="36.1" y="65.8" class="st3" width="7.4" height="7.4"/>
		</g>
		<g>
			<polygon class="st3" points="78.4,213.9 46.2,213.9 41,209.2 46,203.7 49,206.5 75.3,206.5 77.9,203.9 83.2,209.1 			"/>
		</g>
		<g>
			<polygon class="st3" points="215.4,213.9 183.2,213.9 178.1,209.2 183,203.7 186,206.5 212.3,206.5 215,203.9 220.2,209.1 			"/>
		</g>
		<g>
			<path class="st3" d="M58.3,106.5H13.9c-4.1,0-7.4-3.3-7.4-7.4V80.6c0-4.1,3.3-7.4,7.4-7.4h44.4v7.4H13.9v18.5h37V88h7.4
				C58.3,88,58.3,106.5,58.3,106.5z"/>
		</g>
		<g>
			<path class="st3" d="M58.3,162H13.9c-4.1,0-7.4-3.3-7.4-7.4v-18.5c0-4.1,3.3-7.4,7.4-7.4h44.4v7.4H13.9v18.5h37v-11.1h7.4
				C58.3,143.5,58.3,162,58.3,162z"/>
		</g>
		<g>
			<circle class="st4" cx="132.4" cy="117.6" r="40.7"/>
			<path class="st3" d="M132.4,162c-24.5,0-44.4-19.9-44.4-44.4s19.9-44.4,44.4-44.4s44.4,19.9,44.4,44.4S156.9,162,132.4,162z
				 M132.4,80.6c-20.4,0-37,16.6-37,37s16.6,37,37,37s37-16.6,37-37S152.8,80.6,132.4,80.6z"/>
		</g>
		<g>
			<circle class="st2" cx="132.4" cy="117.6" r="18.5"/>
			<path class="st3" d="M132.4,139.8c-12.3,0-22.2-10-22.2-22.2s10-22.2,22.2-22.2s22.2,10,22.2,22.2S144.7,139.8,132.4,139.8z
				 M132.4,102.8c-8.2,0-14.8,6.6-14.8,14.8s6.6,14.8,14.8,14.8s14.8-6.6,14.8-14.8S140.6,102.8,132.4,102.8z"/>
		</g>
		<g>
			<rect x="128.7" y="76.9" class="st3" width="7.4" height="14.8"/>
		</g>
		<g>
			<rect x="128.7" y="143.5" class="st3" width="7.4" height="14.8"/>
		</g>
		<g>
			<rect x="158.3" y="113.9" class="st3" width="14.8" height="7.4"/>
		</g>
		<g>
			<rect x="91.7" y="113.9" class="st3" width="14.8" height="7.4"/>
		</g>
		<g>
			
				<rect x="152.8" y="133.8" transform="matrix(0.7071 -0.7071 0.7071 0.7071 -54.3116 152.1464)" class="st3" width="7.4" height="15.7"/>
		</g>
		<g>
			
				<rect x="104.6" y="85.7" transform="matrix(0.7071 -0.7071 0.7071 0.7071 -34.4489 103.9831)" class="st3" width="7.4" height="15.7"/>
		</g>
		<g>
			
				<rect x="100.5" y="138" transform="matrix(0.7071 -0.7071 0.7071 0.7071 -68.4619 118.1334)" class="st3" width="15.7" height="7.4"/>
		</g>
		<g>
			
				<rect x="148.6" y="89.8" transform="matrix(0.7071 -0.7071 0.7071 0.7071 -20.2986 137.9962)" class="st3" width="15.7" height="7.4"/>
		</g>
		<g>
			<rect x="17.6" y="102.8" class="st3" width="7.4" height="29.6"/>
		</g>
		<g>
			<path class="st3" d="M227.9,199.1H34.3c-8.4,0-16.7-7.9-16.7-15.9v-24.9H25v24.9c0,4,4.9,8.5,9.3,8.5h193.6
				c4.1,0,8.2-4.3,8.2-8.5v-132c0-4-3.9-7.6-8.2-7.6H34.3c-4.1,0-9.3,3.6-9.3,7.6v25.7h-7.4V51.1c0-8.6,8.8-15,16.7-15h193.6
				c8.3,0,15.6,7,15.6,15v132C243.5,191.5,236.1,199.1,227.9,199.1z"/>
		</g>
	</g>
</g>
<g id="Capa_2_1_">
	<g id="XMLID_1_">
		<g>
			<rect x="56.9" y="165.3" class="st5" width="8" height="24.1"/>
		</g>
		<g>
		</g>
	</g>
	<path class="st5" d="M249.4,78.8l-12.1-20.1c-0.7-1.2-2-2-3.4-2h-21.3l-9.9-27.8l6-10.5c0.7-1.2,0.7-2.8,0-4l-6.9-12.1
		c-0.7-1.3-2.1-2-3.5-2h-13.8c-1.4,0-2.8,0.8-3.5,2l-6.9,12.1c-0.7,1.2-0.7,2.8,0,4l1.6,2.7l-20.5,23.4l-1.1-2c-0.7-1.3-2-2-3.5-2
		h-13.8c-1.4,0-2.8,0.8-3.5,2l-0.1,0.2l-22.3-22.3l1.2-2.1c0.7-1.2,0.7-2.8,0-4l-6.9-12.1c-0.7-1.3-2-2-3.5-2H87.9
		c-1.4,0-2.8,0.8-3.5,2l-6.1,10.6l-23.6,6.7L44.2,2.3c-0.7-1.2-2-2-3.5-2h-24c-1.4,0-2.7,0.7-3.4,2L1.1,22.4c-0.8,1.3-0.8,2.9,0,4.1
		l12.1,20.1c0.7,1.2,2,2,3.4,2h22.5l60,60l-1.4,2.3c-0.8,1.3-0.8,2.9,0,4.1l3.6,6H52.9c-6.7,0-12.1,5.4-12.1,12.1v88.5
		c0,6.7,5.4,12.1,12.1,12.1h53l3.4,16.9l7.9-1.6l-3.5-17.5l5.4-3.6l2.4,7.1l7.6-2.5l-7.8-23.5v-51.7c0-2.2,1.8-4,4-4s4,1.8,4,4v44.3
		c0,1.8,1.2,3.3,2.9,3.9c1.7,0.5,3.5-0.1,4.5-1.6l6.9-10.3h3.7l6.9,10.3c0.7,1.1,2,1.8,3.3,1.8h5.9l6.9,10.3c0.7,1.1,2,1.8,3.3,1.8
		h5.9l6.2,9.3V250h8v-16.1h4c6.7,0,12.1-5.4,12.1-12.1v-88.5c0-6.7-5.4-12.1-12.1-12.1h-48.4l3.6-6c0.8-1.3,0.8-2.9,0-4.1l-4.4-7.3
		l52-10.4l5.9,9.8c0.7,1.2,2,1.9,3.5,1.9H234c1.4,0,2.7-0.7,3.4-2L249.5,83C250.2,81.6,250.2,80.1,249.4,78.8z M186.8,8.4h9.1l4.6,8
		l-4.6,8h-9.1l-4.6-8L186.8,8.4z M139.1,48.7h9.1l4.6,8l-4.6,8h-9.1l-4.6-8L139.1,48.7z M90.3,8.4h9.1l4.6,8l-4.6,8h-9.1l-4.6-8
		L90.3,8.4z M87.9,32.6h13.8c1.4,0,2.8-0.8,3.5-2l1.6-2.7L129,50.1l-1.2,2l-76.1-18l3.7-6.2L79,21.2l5.3,9.3
		C85.1,31.8,86.5,32.6,87.9,32.6z M9.3,24.5L19,8.4h19.6l9.7,16.1l-9.7,16.1H18.9L9.3,24.5z M45.9,44l1.6-2.7l79.8,18.9l5,8.7
		l-9.5,19.9h-9.5c-1.4,0-2.7,0.7-3.4,2l-6.4,10.7L45.9,44z M115.5,96.9h19.6l9.7,16.1l-9.7,16.1h-19.6l-9.7-16.1L115.5,96.9z
		 M177.6,129.1v80.5h-1.9l-6.9-10.3c-0.7-1.1-2-1.8-3.3-1.8h-5.9l-6.9-10.3c-0.7-1.1-2-1.8-3.3-1.8h-8c-1.3,0-2.6,0.7-3.3,1.8
		l-0.7,1v-31c0-6.7-5.4-12.1-12.1-12.1c-6.7,0-12.1,5.4-12.1,12.1v52.3c0,0.4,0.1,0.9,0.2,1.3l3.1,9.2l-8.5,5.7H81v-96.6h25.1
		l3.7,6.1c0.7,1.2,2,2,3.4,2h24.1c1.4,0,2.7-0.7,3.4-2l3.7-6.1H177.6z M144.1,96.3l-3.3-5.5c-0.7-1.2-2-2-3.5-2h-5.7l7.7-16.1h11.3
		c1.4,0,2.8-0.8,3.5-2l6.9-12.1c0.7-1.2,0.7-2.8,0-4l-1.6-2.7l20.5-23.4l1.1,2c0.7,1.3,2,2,3.5,2h11l9.9,27.7l-11.1,18.5
		c-0.8,1.3-0.8,2.9,0,4.1l1.8,3L144.1,96.3z M231.6,96.9H212l-9.7-16.1l9.7-16.1h19.6l9.7,16.1L231.6,96.9z"/>
	<g id="XMLID_3_">
		<g>
			<path class="st6" d="M201.7,133.2v88.5c0,2.2-1.8,4-4,4h-4c0-0.8-0.2-1.6-0.7-2.2l-7.4-11.1v-83.3h12.1
				C199.9,129.1,201.7,130.9,201.7,133.2z"/>
		</g>
		<g>
		</g>
	</g>
	<g id="XMLID_2_">
		<g>
			<path class="st6" d="M73,129.2v96.6H52.9c-2.3-0.1-4.1-1.9-4.1-4.1v-88.5c0-2.2,1.8-4,4-4H73z"/>
		</g>
		<g>
		</g>
	</g>
</g>
</svg>
